<?xml version="1.0" encoding="UTF-8" standalone="no"?>
<!-- Generator: Adobe Illustrator 14.0.0, SVG Export Plug-In . SVG Version: 6.00 Build 43363)  -->

<svg
   xmlns:dc="http://purl.org/dc/elements/1.1/"
   xmlns:cc="http://creativecommons.org/ns#"
   xmlns:rdf="http://www.w3.org/1999/02/22-rdf-syntax-ns#"
   xmlns:svg="http://www.w3.org/2000/svg"
   xmlns="http://www.w3.org/2000/svg"
   xmlns:sodipodi="http://sodipodi.sourceforge.net/DTD/sodipodi-0.dtd"
   xmlns:inkscape="http://www.inkscape.org/namespaces/inkscape"
   version="1.1"
   id="Layer_1"
   x="0px"
   y="0px"
   width="652"
   height="133.37634"
   viewBox="0 0 652 133.37634"
   enable-background="new 0 0 200 40"
   xml:space="preserve"
   inkscape:version="0.48.5 r10040"
   sodipodi:docname="Nippon Yusen company logo.svg"><metadata
   id="metadata73"><rdf:RDF><cc:Work
       rdf:about=""><dc:format>image/svg+xml</dc:format><dc:type
         rdf:resource="http://purl.org/dc/dcmitype/StillImage" /></cc:Work></rdf:RDF></metadata><defs
   id="defs71" /><sodipodi:namedview
   pagecolor="#ffffff"
   bordercolor="#666666"
   borderopacity="1"
   objecttolerance="10"
   gridtolerance="10"
   guidetolerance="10"
   inkscape:pageopacity="0"
   inkscape:pageshadow="2"
   inkscape:window-width="1280"
   inkscape:window-height="972"
   id="namedview69"
   showgrid="false"
   fit-margin-top="5"
   fit-margin-bottom="5"
   fit-margin-right="5"
   fit-margin-left="5"
   inkscape:zoom="1"
   inkscape:cx="105"
   inkscape:cy="109.15935"
   inkscape:window-x="-8"
   inkscape:window-y="-8"
   inkscape:window-maximized="1"
   inkscape:current-layer="Layer_1" />
<g
   id="g3"
   transform="matrix(3.21,0,0,3.21,5,2.48657)">
	<path
   d="m 12.945,31.636 c 0.004,0.017 0.044,0.207 0.044,0.207"
   id="path5"
   inkscape:connector-curvature="0"
   style="fill:#010101" />
	<path
   d="M 3.784,4.178 C 3.802,4.174 3.82,4.169 3.851,4.159 5.289,3.795 10.461,2.715 16.651,4.176 L 16.822,4.22 C 22.101,5.542 27.45,5.861 31.893,5.118 31.942,5.11 32.003,5.102 32.09,5.082 34.82,4.551 37.92,4.463 41.308,4.822 L 41.097,4.67 41.204,4.913 41.191,4.879 c 0.025,0.083 0.038,0.284 0.059,0.51 0.086,1.122 0.298,3.752 2.549,6.858 0.411,0.57 3.729,6.505 4.081,9.866 0.087,0.844 1.058,5.906 3.538,9.644 l 0.004,0.015 0.012,0.012 0.041,0.045 0.223,-0.431 C 50.231,31.242 49.532,31.086 48.854,30.935 L 48.663,30.892 C 46.184,30.337 42.389,29.87 38.424,30.778 l -0.115,0.028 c -2.25,0.484 -3.846,0.722 -4.805,0.866 -0.302,0.046 -0.544,0.079 -0.718,0.11 -2.526,0.449 -7.521,-0.484 -9.161,-0.799 -0.271,-0.049 -0.455,-0.086 -0.542,-0.095 -2.608,-0.373 -6.42,-0.577 -9.778,0.602 -0.057,0.021 -0.107,0.037 -0.137,0.043 l 0.33,0.195 -0.043,-0.192 C 10.969,16.743 4.133,4.092 4.066,3.968"
   id="path7"
   inkscape:connector-curvature="0"
   style="fill:#ffffff" />
	<polygon
   points="2.726,2.632 12.109,37.383 12.646,37.239 3.263,2.488 3.193,2.418 2.994,2.661 1.524,3.249 1.078,2.736 1.153,3.013 10.459,37.383 10.993,37.239 1.684,2.87 1.487,3.211 3.063,2.832 "
   id="polygon9"
   style="fill:#010101" />
	<path
   d="M 0.025,2.518 C 0.003,2.448 0,2.381 0,2.333 0.057,1.562 0.861,1.103 1.817,0.87 2.09,0.809 2.351,0.783 2.601,0.783 3.296,0.792 3.964,0.98 4.14,1.612 4.149,1.664 4.153,1.718 4.153,1.77 4.097,2.537 3.296,3.002 2.337,3.235 L 2.271,2.929 2.334,3.235 C 2.063,3.292 1.804,3.323 1.554,3.323 0.857,3.309 0.195,3.127 0.025,2.518 M 2.601,1.412 c -0.203,0 -0.42,0.021 -0.646,0.072 -0.848,0.161 -1.36,0.689 -1.329,0.85 0,0 0,0.013 0.006,0.033 0,0.09 0.323,0.337 0.921,0.328 0.2,0 0.419,-0.021 0.649,-0.069 V 2.624 C 3.051,2.463 3.559,1.927 3.529,1.77 c 0,0 -0.003,-0.032 -0.003,-0.028 0,-0.093 -0.312,-0.33 -0.889,-0.33 H 2.601"
   id="path11"
   inkscape:connector-curvature="0"
   style="fill:#010101" />
	<path
   d="M 42.586,9.924 C 39.209,9.587 37.19,9.873 36.681,9.873 c -1.437,0 -6.13,0.76 -6.68,0.843 -2.355,0.363 -5.788,-0.125 -6.252,-0.252 C 18.773,9.108 16.139,9.195 15.634,9.155 12.573,8.896 6.925,9.367 6.546,9.45 l 0.017,0.054 c 0.683,1.531 1.436,3.355 2.204,5.421 l 0.017,0.018 c 0.511,-0.082 5.979,-1.048 11.586,0 0.674,0.127 9.265,1.784 13.606,0.509 0.719,-0.211 4.441,-0.833 6.257,-0.591 0.635,0.082 4.381,0.255 5.466,0.504 L 45.655,15.287 C 44.797,13.544 43.962,12.195 43.794,11.965 43.294,11.28 42.932,10.606 42.621,9.988 L 42.586,9.924 z"
   id="path13"
   inkscape:connector-curvature="0"
   style="fill:#d71f27" />
	<path
   d="m 48.915,25.772 c -3.76,-0.592 -7.204,-0.644 -8.005,-0.686 -2.452,-0.126 -5.751,0.76 -6.469,0.931 -4.561,1.074 -11.538,-0.423 -12.256,-0.551 -4.31,-0.761 -9.51,0.595 -9.972,0.718 l -0.002,-0.028 c -0.449,-1.865 -0.942,-3.65 -1.45,-5.338 l -0.028,-0.041 c 0.425,-0.127 6.047,-1.633 10.903,-0.59 0.595,0.124 7.736,1.229 10.313,0.885 0.635,-0.086 3.116,-0.146 6.381,-0.762 0.68,-0.124 5.295,-0.633 9.437,0.295 l 0.027,0.085 c 0.096,0.399 0.19,0.793 0.229,1.153 0.041,0.412 0.283,1.958 0.881,3.881 l 0.011,0.048 z"
   id="path15"
   inkscape:connector-curvature="0"
   style="fill:#d71f27" />
	<path
   d="M 2.758,2.701 3.674,4.226 C 3.755,4.365 11.949,18.923 13.865,37.33 L 14.42,37.272 C 12.489,18.752 4.234,4.088 4.154,3.948 4.152,3.94 3.234,2.418 3.234,2.418 L 2.758,2.701 z"
   id="path17"
   inkscape:connector-curvature="0"
   style="fill:#010101" />
	<path
   d="M 3.972,4.354 C 3.989,4.351 4.009,4.346 4.042,4.335 5.469,3.974 10.6,2.907 16.753,4.354 l 0.173,0.042 c 5.245,1.311 10.566,1.626 14.98,0.89 0.048,-0.007 0.11,-0.021 0.197,-0.036 2.71,-0.525 5.791,-0.616 9.155,-0.26 L 41.032,4.826 41.139,5.07 41.126,5.036 c 0.023,0.084 0.04,0.275 0.056,0.497 0.089,1.115 0.294,3.726 2.538,6.806 0.413,0.562 3.706,6.437 4.054,9.765 0.089,0.835 1.053,5.856 3.518,9.56 l 0.008,0.013 0.011,0.014 0.034,0.045 0.243,-0.457 c -1.457,-0.151 -2.149,-0.308 -2.821,-0.457 l -0.19,-0.046 C 46.108,30.23 42.336,29.765 38.394,30.665 l -0.12,0.028 c -2.231,0.478 -3.819,0.717 -4.766,0.855 -0.304,0.048 -0.545,0.084 -0.72,0.112 -2.503,0.442 -7.465,-0.483 -9.095,-0.79 -0.275,-0.049 -0.451,-0.084 -0.542,-0.099 -2.592,-0.369 -6.386,-0.566 -9.726,0.598 -0.057,0.021 -0.106,0.04 -0.133,0.046 l 0.351,0.209 -0.042,-0.192 C 11.127,16.778 4.331,4.245 4.263,4.116 4.251,4.101 4.148,3.931 4.148,3.931 l -0.471,0.301 0.112,0.17 c 0.057,0.104 6.806,12.557 9.264,27.134 0.003,0.017 0.049,0.204 0.049,0.204 l 0.064,0.295 0.285,-0.086 c 0.04,-0.012 0.089,-0.031 0.16,-0.056 3.231,-1.128 6.934,-0.936 9.464,-0.572 0.074,0.012 0.264,0.046 0.516,0.092 1.653,0.311 6.692,1.255 9.297,0.792 0.167,-0.025 0.406,-0.065 0.705,-0.108 0.951,-0.143 2.553,-0.381 4.8,-0.861 l 0.125,-0.03 c 3.845,-0.879 7.526,-0.424 9.941,0.113 l 0.189,0.043 c 0.685,0.153 1.396,0.311 2.882,0.47 l 0.697,0.074 -0.458,-0.535 -0.036,-0.046 0.02,0.027 c -2.4,-3.608 -3.342,-8.493 -3.424,-9.301 -0.382,-3.652 -3.912,-9.7 -4.157,-10.038 C 42.026,9.058 41.829,6.647 41.739,5.491 41.718,5.207 41.702,5.018 41.665,4.88 L 41.661,4.862 41.649,4.847 41.542,4.605 41.477,4.454 41.32,4.438 C 37.897,4.075 34.763,4.167 32,4.707 31.919,4.721 31.856,4.733 31.82,4.742 27.474,5.463 22.234,5.147 17.061,3.855 L 16.881,3.811 C 10.604,2.333 5.362,3.424 3.904,3.794 3.879,3.804 3.859,3.81 3.85,3.81 l 0.122,0.544 z"
   id="path19"
   inkscape:connector-curvature="0"
   style="fill:#010101" />
	<path
   d="m 144.417,28.075 -0.008,0.043 -0.721,3.505 h 0.096 15.092 0.063 l 0.728,-3.553 h -0.13 -1.145 c -1.802,0 -3.372,-1.977 -3.731,-2.471 -0.362,-0.491 -4.844,-6.906 -4.844,-6.906 0,0 6.708,-3.178 7.099,-3.374 0.395,-0.199 2.03,-0.734 2.915,-0.734 l 1.591,0.002 0.11,-0.002 0.821,-3.897 -0.068,10e-4 -13.093,10e-4 -0.179,-0.002 -0.81,3.897 h 0.138 0.275 c 0.151,0 1.021,0.164 0.566,0.53 -0.415,0.334 -6.013,3.085 -6.013,3.085 l -0.076,0.031 c 0,0 0.115,-0.592 0.257,-1.193 0.516,-2.215 2.317,-2.453 2.537,-2.453 l 0.014,-0.081 0.788,-3.816 -0.214,0.002 -14.941,0.006 -0.01,0.038 -0.782,3.851 h 0.07 0.691 c 0.373,0 2.052,0.345 1.816,1.537 l -0.036,0.245 -2.059,10.018 -0.066,0.226 c -0.25,1.165 -1.882,1.459 -2.128,1.459 h -0.976 l -0.065,-0.002 -0.72,3.555 h 0.067 14.868 l 0.148,10e-4 0.737,-3.556 h -0.134 -0.264 c -1.55,0 -1.146,-2.191 -1.048,-2.813 l 0.049,-0.245 0.511,-2.474 1.104,1.507 c 0,0 1.453,2.103 1.723,2.471 0.269,0.361 1.233,1.488 -0.617,1.555"
   id="path21"
   inkscape:connector-curvature="0"
   style="fill:#010101" />
	<path
   d="m 67.428,14.586 h -1.338 1.482 c 0.236,0 1.573,0.212 1.246,1.75 l -0.032,0.146 -1.894,9.264 -0.038,0.112 c -0.52,2.459 -2.96,2.209 -3.648,2.209 l -0.08,0.374 -0.667,3.182 h 0.061 10.344 0.128 l 0.699,-3.357 0.054,-0.197 c 0,0 -0.867,0.017 -1.079,0 -1.383,-0.104 -1.218,-1.748 -1.161,-2.019 l 0.017,-0.105 0.761,-3.648 0.043,0.03 9.636,9.297 h 0.127 8.072 0.115 l 2.978,-14.421 0.113,-0.439 c 0.166,-0.441 0.743,-2.176 1.948,-2.176 h 1.559 0.16 l 0.819,-3.884 h -0.216 l -10.538,10e-4 -0.161,0.002 -0.813,3.881 h 0.142 0.98 c 0.098,0 1.737,0.098 1.524,1.463 l -0.083,0.418 -1.318,6.343 -0.004,0.037 -12.6,-12.14 -0.214,-0.004 -7.647,0.002 h -0.13 l -0.801,3.881 h 0.118"
   id="path23"
   inkscape:connector-curvature="0"
   style="fill:#010101" />
	<path
   d="m 116.363,17.874 c 0,0 -1.316,-2.135 -1.383,-2.25 -0.439,-0.768 0.488,-1.039 0.623,-1.039 h 1.316 0.245 l 0.785,-3.881 -0.196,-0.005 -19.819,10e-4 -0.165,0.004 -0.798,3.881 0.178,-0.004 c 0,0 1.174,0.006 1.507,0.006 0.325,0 2.08,-0.229 3.305,1.13 0.292,0.326 3.797,4.743 4.059,5.072 0.258,0.327 0.724,0.77 0.604,1.278 l -0.064,0.293 -0.657,3.207 -0.077,0.309 c -0.342,1.826 -2.521,2.193 -2.835,2.193 h -2.484 -0.152 l -0.746,3.551 0.192,0.002 h 20.816 0.282 l 0.733,-3.553 h -0.064 -3.323 c -1.519,0 -1.405,-1.521 -1.353,-1.767 l 0.034,-0.146 0.795,-3.797 0.033,-0.148 c 0.068,-0.264 0.085,-0.682 0.937,-1.228 0.275,-0.179 6.215,-4.402 6.542,-4.632 0.327,-0.229 2.606,-1.749 4.321,-1.766 l 1.028,-0.001 h 0.168 0.058 l 0.792,-3.888 h -0.074 l -11.463,10e-4 -0.293,0.005 -0.804,3.881 h 0.148 0.341 c 0.164,0 1.063,0.035 0.454,0.813 -0.094,0.109 -0.744,0.593 -0.744,0.593 l -2.82,1.899"
   id="path25"
   inkscape:connector-curvature="0"
   style="fill:#010101" />
	<path
   d="m 195.166,25.816 -0.333,1.645 c 0.319,0 1.019,-0.132 1.297,-0.683 h 1.089 l -0.562,2.54 h -0.992 v 0.008 c -0.121,-0.554 -0.746,-0.452 -1.106,-0.452 l -0.311,1.395 h 1.663 0.1 c 0.263,0 0.801,0.088 1.063,-0.479 h 1.832 l -0.392,1.836 0.017,-0.002 h -9.057 l 0.233,-1.121 c 0.336,0 0.871,-0.163 1.018,-0.8 l 0.599,-2.823 c 0.145,-0.714 -0.434,-0.919 -0.669,-0.919 l 0.307,-1.534 H 200 v 0.004 l -0.349,1.718 h -2.08 c -0.134,-0.378 -0.513,-0.332 -0.834,-0.332 h -0.189 -1.382"
   id="path27"
   inkscape:connector-curvature="0"
   style="fill:#010101" />
	<path
   d="m 162.947,29.53 0.5,-2.435 0.058,-0.216 c 0.207,-0.933 -0.626,-1.05 -0.876,-1.05 l 0.295,-1.4 h 5.854 l -0.308,1.414 c -0.309,0 -1.104,-0.014 -1.312,0.92 l -0.494,2.37 c -0.057,0.221 -0.173,1.356 0.744,1.356 h 1.046 c 0.394,0 0.813,-0.425 1.05,-1.136 h 1.685 l -0.479,2.27 h -9.285 l 0.229,-1.134 c 0.292,0 1.091,-0.117 1.269,-0.873 l 0.024,-0.086 z"
   id="path29"
   inkscape:connector-curvature="0"
   style="fill:#010101" />
	<path
   d="m 171.702,30.503 -0.236,1.121 h 5.794 l 0.235,-1.134 c -0.405,0 -0.917,-0.293 -0.785,-0.95 h 0.002 l 0.591,-2.915 0.017,-0.01 c 0.205,-0.885 0.685,-0.785 1.137,-0.785 l 0.004,-0.004 0.295,-1.399 h -5.802 l -0.277,1.39 c 0.264,0 1.077,0.114 0.848,1.146 l -0.008,-0.003 -0.519,2.506 -0.003,-0.024 c -0.158,0.77 -0.911,1.061 -1.293,1.061"
   id="path31"
   inkscape:connector-curvature="0"
   style="fill:#010101" />
	<path
   d="m 179.646,24.427 -0.305,1.447 c 0.218,0 0.875,0.089 0.701,0.844 l -0.533,2.65 h -0.007 c -0.173,0.844 -0.752,1.122 -1.091,1.122 l -0.246,1.134 h 3.781 l 0.235,-1.149 c -0.409,0 -0.945,-0.222 -0.814,-0.905 l 0.197,-0.947 0.005,0.005 3.319,2.997 h 3.059 l 1.035,-4.962 c 0.143,-0.673 0.62,-0.744 0.882,-0.744 l 0.296,-1.491 h -3.438 l -0.304,1.491 c 0.319,0 0.784,0.218 0.652,0.8 l -0.346,1.603 -4.297,-3.894 h -2.781 z"
   id="path33"
   inkscape:connector-curvature="0"
   style="fill:#010101" />
	<polygon
   points="63.729,35.797 63.72,35.797 63.72,39.095 62.815,39.095 62.815,34.472 63.834,34.472 65.668,37.69 65.681,37.69 65.681,34.472 66.583,34.472 66.583,39.095 65.621,39.095 "
   id="polygon35"
   style="fill:#010101" />
	<rect
   x="68.152"
   y="34.472"
   width="0.96600002"
   height="4.6209998"
   id="rect37"
   style="fill:#010101" />
	<path
   d="m 71.7,39.095 h -0.963 v -4.621 h 2.109 c 0.898,0 1.435,0.57 1.435,1.479 0,0.419 -0.227,1.477 -1.474,1.477 H 71.7 v 1.665 z m 0.894,-2.467 c 0.723,0 0.723,-0.516 0.723,-0.721 0,-0.452 -0.252,-0.635 -0.854,-0.635 H 71.7 v 1.355 h 0.894 z"
   id="path39"
   inkscape:connector-curvature="0"
   style="fill:#010101" />
	<path
   d="m 76.715,39.095 h -0.969 v -4.621 h 2.114 c 0.896,0 1.437,0.57 1.437,1.479 0,0.419 -0.233,1.477 -1.474,1.477 h -1.107 v 1.665 z m 0.893,-2.467 c 0.722,0 0.722,-0.516 0.722,-0.721 0,-0.452 -0.25,-0.635 -0.849,-0.635 h -0.766 v 1.355 h 0.893 z"
   id="path41"
   inkscape:connector-curvature="0"
   style="fill:#010101" />
	<path
   d="m 82.776,34.351 c 0.612,0 2.222,0.265 2.222,2.435 0,2.169 -1.61,2.432 -2.222,2.432 -0.608,0 -2.222,-0.263 -2.222,-2.432 0,-2.171 1.614,-2.435 2.222,-2.435 m 0,4.046 c 0.521,0 1.258,-0.321 1.258,-1.612 0,-1.293 -0.737,-1.616 -1.258,-1.616 -0.521,0 -1.251,0.323 -1.251,1.616 0,1.291 0.731,1.612 1.251,1.612"
   id="path43"
   inkscape:connector-curvature="0"
   style="fill:#010101" />
	<polygon
   points="87.357,35.797 87.346,35.797 87.346,39.095 86.445,39.095 86.445,34.472 87.458,34.472 89.297,37.69 89.311,37.69 89.311,34.472 90.21,34.472 90.21,39.095 89.247,39.095 "
   id="polygon45"
   style="fill:#010101" />
	<polygon
   points="130.588,36.351 132.357,34.472 133.602,34.472 131.719,36.364 133.713,39.095 132.474,39.095 131.043,37.065 130.588,37.531 130.588,39.095 129.624,39.095 129.624,34.472 130.588,34.472 "
   id="polygon47"
   style="fill:#010101" />
	<path
   d="m 135.579,39.095 h -1.018 l 1.648,-4.623 h 1.115 l 1.627,4.623 h -1.049 l -0.301,-0.953 H 135.9 l -0.321,0.953 z m 0.576,-1.753 h 1.181 l -0.572,-1.828 h -0.012 l -0.597,1.828 z"
   id="path49"
   inkscape:connector-curvature="0"
   style="fill:#010101" />
	<rect
   x="140.214"
   y="34.472"
   width="0.96499997"
   height="4.6209998"
   id="rect51"
   style="fill:#010101" />
	<path
   d="m 143.482,37.672 c 0.006,0.258 0.137,0.745 0.98,0.745 0.456,0 0.967,-0.111 0.967,-0.599 0,-0.361 -0.348,-0.458 -0.836,-0.574 l -0.497,-0.111 c -0.746,-0.178 -1.468,-0.343 -1.468,-1.361 0,-0.513 0.275,-1.422 1.776,-1.422 1.412,0 1.793,0.928 1.802,1.495 h -0.928 c -0.023,-0.207 -0.103,-0.696 -0.946,-0.696 -0.366,0 -0.804,0.133 -0.804,0.555 0,0.361 0.3,0.434 0.49,0.479 l 1.129,0.279 c 0.626,0.152 1.209,0.409 1.209,1.241 0,1.392 -1.417,1.513 -1.821,1.513 -1.691,0 -1.979,-0.971 -1.979,-1.544 h 0.926 z"
   id="path53"
   inkscape:connector-curvature="0"
   style="fill:#010101" />
	<polygon
   points="148.741,34.474 148.741,36.224 150.544,36.224 150.544,34.474 151.509,34.474 151.509,39.095 150.544,39.095 150.544,37.021 148.741,37.021 148.741,39.095 147.777,39.095 147.777,34.474 "
   id="polygon55"
   style="fill:#010101" />
	<path
   d="m 153.832,39.095 h -1.017 l 1.651,-4.623 h 1.112 l 1.628,4.623 h -1.051 l -0.293,-0.953 h -1.707 l -0.323,0.953 z m 0.58,-1.753 h 1.18 l -0.573,-1.828 h -0.014 l -0.593,1.828 z"
   id="path57"
   inkscape:connector-curvature="0"
   style="fill:#010101" />
	<polygon
   points="99.048,34.472 100.007,36.479 100.924,34.472 102.016,34.472 100.473,37.363 100.473,39.095 99.506,39.095 99.506,37.35 97.91,34.472 "
   id="polygon59"
   style="fill:#010101" />
	<path
   d="m 107.017,37.479 c 0,1.213 -0.733,1.737 -1.897,1.737 -0.426,0 -1.059,-0.103 -1.471,-0.558 -0.248,-0.285 -0.344,-0.659 -0.358,-1.119 v -3.067 h 0.985 v 3.002 c 0,0.644 0.373,0.927 0.824,0.927 0.663,0 0.931,-0.324 0.931,-0.882 v -3.047 h 0.986 v 3.007 z"
   id="path61"
   inkscape:connector-curvature="0"
   style="fill:#010101" />
	<path
   d="m 109.372,37.672 c 0.005,0.258 0.135,0.745 0.977,0.745 0.458,0 0.967,-0.111 0.967,-0.599 0,-0.361 -0.344,-0.458 -0.834,-0.574 l -0.5,-0.111 c -0.746,-0.178 -1.468,-0.343 -1.468,-1.361 0,-0.513 0.278,-1.422 1.775,-1.422 1.419,0 1.802,0.928 1.805,1.495 h -0.927 c -0.025,-0.207 -0.105,-0.696 -0.943,-0.696 -0.365,0 -0.808,0.133 -0.808,0.555 0,0.361 0.296,0.434 0.492,0.479 l 1.125,0.279 c 0.631,0.152 1.212,0.409 1.212,1.241 0,1.392 -1.418,1.513 -1.825,1.513 -1.685,0 -1.975,-0.971 -1.975,-1.544 h 0.927 z"
   id="path63"
   inkscape:connector-curvature="0"
   style="fill:#010101" />
	<polygon
   points="116.898,37.08 114.645,37.08 114.645,38.278 117.207,38.278 117.207,39.095 113.697,39.095 113.697,34.472 117.098,34.472 117.098,35.29 114.645,35.29 114.645,36.261 116.898,36.261 "
   id="polygon65"
   style="fill:#010101" />
	<polygon
   points="119.579,35.797 119.564,35.797 119.564,39.095 118.664,39.095 118.664,34.472 119.68,34.472 121.514,37.69 121.531,37.69 121.531,34.472 122.432,34.472 122.432,39.095 121.464,39.095 "
   id="polygon67"
   style="fill:#010101" />
</g>
</svg>